# xmcd
#
# Track frame offsets:
#	150
#	26600
#	46315
#	70613
#	93798
#	115878
#	136285
#	158675
#	180315
#	199887
#	221952
#	243892
#	264427
#
# Disc length: 3807 seconds
#
# Revision: 34
# Processed by: cddbd v1.5.2PL0 Copyright (c) Steve Scherf et al.
# Submitted via: Jack! The Knife 20 Magnifico
#
DISCID=ab0edd0d
DTITLE=Dokken - Back For The Attack
DYEAR=1987
DGENRE=Hard Rock
TTITLE0=Kiss Of Death
TTITLE1=Prisoner
TTITLE2=Night By Night
TTITLE3=Standing In The Shadows
TTITLE4=Heaven Sent
TTITLE5=Mr. Scary
TTITLE6=So Many Tears
TTITLE7=Burning Like A Flame
TTITLE8=Lost Behind The Wall
TTITLE9=Stop Fighting Love
TTITLE10=Cry Of The Gypsy
TTITLE11=Sleepless Night
TTITLE12=Dream Warriors
EXTD=Neil Kernon
EXTT0=Dokken, Lynch, Pilson
EXTT1=Brown, Lynch, Pilson
EXTT2=Brown, Dokken, Lynch, Pilson
EXTT3=Dokken, Lynch, Pilson
EXTT4=Dokken, Lynch, Pilson
EXTT5=Lynch, Pilson
EXTT6=Dokken, Lynch, Pilson
EXTT7=Brown, Dokken, Lynch, Pilson
EXTT8=Brown, Dokken, Lynch, Pilson
EXTT9=Brown, Dokken, Lynch, Pilson
EXTT10=Dokken, Lynch, Pilson
EXTT11=Brown, Lynch, Pilson
EXTT12=Lynch, Pilson
PLAYORDER=
